<svg width="1200" height="800" viewBox="0 0 1200 800" fill="none" xmlns="http://www.w3.org/2000/svg">
  <defs>
    <linearGradient id="bg" x1="160" y1="60" x2="1040" y2="760" gradientUnits="userSpaceOnUse">
      <stop stop-color="#0F172A"/>
      <stop offset="0.52" stop-color="#111827"/>
      <stop offset="1" stop-color="#020617"/>
    </linearGradient>
    <radialGradient id="glow1" cx="0" cy="0" r="1" gradientUnits="userSpaceOnUse" gradientTransform="translate(320 220) rotate(90) scale(260 260)">
      <stop stop-color="#F97316" stop-opacity="0.55"/>
      <stop offset="1" stop-color="#F97316" stop-opacity="0"/>
    </radialGradient>
    <radialGradient id="glow2" cx="0" cy="0" r="1" gradientUnits="userSpaceOnUse" gradientTransform="translate(880 180) rotate(90) scale(220 220)">
      <stop stop-color="#22D3EE" stop-opacity="0.55"/>
      <stop offset="1" stop-color="#22D3EE" stop-opacity="0"/>
    </radialGradient>
    <linearGradient id="stage" x1="240" y1="520" x2="960" y2="720" gradientUnits="userSpaceOnUse">
      <stop stop-color="#334155"/>
      <stop offset="1" stop-color="#0F172A"/>
    </linearGradient>
  </defs>
  <rect width="1200" height="800" fill="url(#bg)"/>
  <circle cx="320" cy="220" r="260" fill="url(#glow1)"/>
  <circle cx="880" cy="180" r="220" fill="url(#glow2)"/>
  <path d="M168 640C284 560 400 530 600 530C800 530 916 560 1032 640V800H168V640Z" fill="#020617"/>
  <path d="M250 610C340 560 450 540 600 540C750 540 860 560 950 610V800H250V610Z" fill="url(#stage)"/>
  <rect x="360" y="310" width="480" height="180" rx="28" fill="#0B1120" stroke="#64748B" stroke-opacity="0.35"/>
  <rect x="405" y="355" width="390" height="22" rx="11" fill="#F8FAFC" fill-opacity="0.9"/>
  <rect x="405" y="395" width="260" height="14" rx="7" fill="#CBD5E1" fill-opacity="0.75"/>
  <rect x="405" y="425" width="320" height="14" rx="7" fill="#CBD5E1" fill-opacity="0.6"/>
  <circle cx="320" cy="500" r="26" fill="#F97316"/>
  <circle cx="880" cy="500" r="26" fill="#22D3EE"/>
  <path d="M250 280L330 340H170L250 280Z" fill="#FB7185" fill-opacity="0.8"/>
  <path d="M950 260L1030 320H870L950 260Z" fill="#38BDF8" fill-opacity="0.8"/>
  <path d="M600 190L638 255H562L600 190Z" fill="#F8FAFC" fill-opacity="0.9"/>
  <text x="600" y="372" text-anchor="middle" fill="#F8FAFC" font-family="Arial, Helvetica, sans-serif" font-size="50" font-weight="700" letter-spacing="4">CITY LIGHTS</text>
  <text x="600" y="420" text-anchor="middle" fill="#CBD5E1" font-family="Arial, Helvetica, sans-serif" font-size="24" font-weight="600" letter-spacing="6">MUSIC FEST</text>
  <text x="600" y="460" text-anchor="middle" fill="#94A3B8" font-family="Arial, Helvetica, sans-serif" font-size="18" font-weight="500">Mumbai, India • June 12, 2026</text>
</svg>